<svg width="327" height="622" viewBox="0 0 327 622" fill="none" xmlns="http://www.w3.org/2000/svg">
<path d="M321.744 3.65795C323.24 -0.951238 329.76 -0.951254 331.256 3.65793L404.744 230.151C405.413 232.212 407.333 233.608 409.5 233.608L647.328 233.608C652.17 233.608 654.185 239.802 650.269 242.651L457.85 382.649C456.101 383.922 455.368 386.177 456.036 388.235L529.531 614.748C531.026 619.356 525.75 623.185 521.833 620.335L329.442 480.356C327.688 479.08 325.312 479.08 323.558 480.356L131.167 620.335C127.25 623.185 121.974 619.356 123.469 614.748L196.964 388.235C197.632 386.177 196.899 383.922 195.149 382.649L2.73069 242.651C-1.18458 239.802 0.830444 233.608 5.67235 233.608L243.5 233.608C245.667 233.608 247.587 232.212 248.256 230.151L321.744 3.65795Z" fill="#FFDBD0"/>
</svg>
